<?xml version="1.0" encoding="UTF-8"?>
<svg xmlns="http://www.w3.org/2000/svg" viewBox="0 0 512 512" role="img" aria-label="Sniper Rifle">
  <defs>
    <linearGradient id="bg" x1="0" y1="0" x2="1" y2="1">
      <stop offset="0" stop-color="#0d1219"/>
      <stop offset="1" stop-color="#030507"/>
    </linearGradient>
    <linearGradient id="metal" x1="0" y1="0" x2="0.8" y2="1">
      <stop offset="0" stop-color="#77808b"/>
      <stop offset="0.38" stop-color="#242b32"/>
      <stop offset="0.72" stop-color="#4c2430"/>
      <stop offset="1" stop-color="#11151a"/>
    </linearGradient>
    <linearGradient id="blade" x1="0" y1="0" x2="1" y2="1">
      <stop offset="0" stop-color="#f0f3f5"/>
      <stop offset="0.42" stop-color="#7c8792"/>
      <stop offset="0.72" stop-color="#4c2430"/>
      <stop offset="1" stop-color="#222930"/>
    </linearGradient>
    <linearGradient id="wood" x1="0" y1="0" x2="1" y2="1">
      <stop offset="0" stop-color="#4c2430"/>
      <stop offset="1" stop-color="#161b20"/>
    </linearGradient>
    <radialGradient id="halo">
      <stop offset="0" stop-color="#a70d35" stop-opacity=".25"/>
      <stop offset="1" stop-color="#a70d35" stop-opacity="0"/>
    </radialGradient>
    <filter id="glow" x="-50%" y="-50%" width="200%" height="200%">
      <feGaussianBlur stdDeviation="5" result="blur"/>
      <feMerge><feMergeNode in="blur"/><feMergeNode in="SourceGraphic"/></feMerge>
    </filter>
    <style>
      .body{fill:url(#metal);stroke:#a70d35;stroke-width:6;stroke-linejoin:round}
      .blade{fill:url(#blade);stroke:#f6f7fb;stroke-width:6;stroke-linejoin:round}
      .wood{fill:url(#wood);stroke:#a70d35;stroke-width:6;stroke-linejoin:round}
      .detail{fill:#11161c;stroke:#a70d35;stroke-width:5;stroke-linejoin:round}
      .linefill{fill:#090c10;stroke:#f6f7fb;stroke-width:5}
      .line{fill:none;stroke:#f6f7fb;stroke-width:4;stroke-linecap:round;stroke-linejoin:round;opacity:.72}
      .edge{fill:none;stroke:#f6f7fb;stroke-width:7;stroke-linecap:round;filter:url(#glow)}
      .bolt{fill:#f6f7fb;stroke:#a70d35;stroke-width:4}
    </style>
  </defs>
  <rect width="512" height="512" rx="48" fill="url(#bg)"/>
  <circle cx="256" cy="256" r="209" fill="url(#halo)"/>
  <circle cx="256" cy="256" r="179" fill="none" stroke="#a70d35" stroke-width="3" opacity=".22"/>
  <circle cx="256" cy="256" r="132" fill="none" stroke="#f6f7fb" stroke-width="2" stroke-dasharray="11 17" opacity=".16"/>
  <path d="M79 65h354l14 14v354l-14 14H79l-14-14V79z" fill="none" stroke="#a70d35" stroke-width="9"/>
  <path d="M96 83h320M429 97v318M416 429H96M83 415V97" fill="none" stroke="#f6f7fb" stroke-width="2" opacity=".72"/>
  <path d="M65 151h28m-28 210h28M419 151h28m-28 210h28" stroke="#f6f7fb" stroke-width="5" opacity=".5"/>
  
    <g class="weapon" transform="rotate(-8 256 256)">
      <path class="body" d="M35 280l91-64 87 29-15 76-105 44-58-30z"/>
      <path class="body" d="M185 225h168l37 36-33 65H185z"/>
      <rect class="body" x="345" y="236" width="133" height="21" rx="6"/>
      <rect class="detail" x="214" y="174" width="119" height="32" rx="12"/>
      <circle class="linefill" cx="219" cy="190" r="20"/>
      <circle class="linefill" cx="331" cy="190" r="18"/>
      <path class="detail" d="M206 318h43l-13 66h-39z"/>
      <path class="line" d="M382 264l20 100m-31-100l-13 95"/>
      <path class="edge" d="M217 264h122M369 247h93"/>
    </g>
</svg>
